<svg xmlns="http://www.w3.org/2000/svg" viewBox="0 0 24 24" fill="none" stroke="currentColor" stroke-width="2" stroke-linecap="round" stroke-linejoin="round">
  <path d="M12 3c-4.97 0-9 3.58-9 8 0 .42.1.82.26 1.2A3 3 0 0 0 6 15h12a3 3 0 0 0 2.74-2.8c.16-.38.26-.78.26-1.2 0-4.42-4.03-8-9-8z" />
  <path d="M9 15v5a3 3 0 0 0 6 0v-5" />
  <circle cx="9" cy="8" r="1" fill="currentColor" />
  <circle cx="15" cy="9" r="1" fill="currentColor" />
  <circle cx="12" cy="6" r="1" fill="currentColor" />
</svg>
